#N canvas -9 -9 1920 1026 10;
#X obj -216 -716 gemhead;
#X obj -214 -627 translateXYZ;
#X obj -218 -487 part_head;
#X obj -230 -406 part_source 20;
#X obj -238 -212 part_velocity;
#X obj -239 -121 part_killold;
#X obj 101 94 part_render;
#X obj 405 -640 gemwin;
#X msg 402 -741 destroy;
#X msg 486 -723 0;
#X msg 446 -719 1;
#X msg -229 197 draw line;
#X msg -153 198 draw point;
#X floatatom -104 -550 5 0 100 0 - - -;
#X floatatom -5 -658 5 0 0 0 - - -;
#X floatatom 95 -655 5 0 0 0 - - -;
#X floatatom 206 -656 5 0 0 0 - - -;
#X floatatom -170 -148 5 0 0 0 - - -;
#X obj -218 -521 rotateXYZ;
#X floatatom -142 -548 5 0 0 0 - - -;
#X floatatom -206 -579 5 0 0 0 - - -;
#X floatatom -159 -576 5 0 0 0 - - -;
#X msg -104 -522 speed \$1;
#X obj -238 -157 part_size;
#X floatatom -209 -186 5 0 0 0 - - -;
#X obj -242 228 part_draw point;
#X obj -215 -766 loadbang;
#X obj 1253 -670 unpack f f;
#X floatatom 1254 -630 5 0 0 0 - - -;
#X floatatom 1317 -629 5 0 0 0 - - -;
#X obj 848 -550 part_orbitpoint;
#X floatatom 962 -575 5 0 0 0 - - -;
#X floatatom 1371 -634 5 0 0 0 - - -;
#X floatatom 1385 -613 5 0 0 0 - - -;
#X floatatom 1421 -565 5 0 0 0 - - -;
#X floatatom 1402 -587 5 0 0 0 - - -;
#X floatatom 1430 -537 5 0 0 0 - - -;
#X floatatom 1453 -497 5 0 0 0 - - -;
#X floatatom 1467 -465 5 0 0 0 - - -;
#X floatatom 1485 -530 5 0 0 0 - - -;
#X floatatom 1498 -556 5 0 0 0 - - -;
#X floatatom 1516 -583 5 0 0 0 - - -;
#X floatatom 1531 -607 5 0 0 0 - - -;
#X floatatom 1547 -634 5 0 0 0 - - -;
#X obj 1247 -725 OSCroute /coord /anal /buttons;
#X obj 1148 -575 tgl 15 0 empty empty empty 17 7 0 10 -262144 -1 -1
1 1;
#X obj 1159 -556 tgl 15 0 empty empty empty 17 7 0 10 -262144 -1 -1
1 1;
#X obj 1173 -536 tgl 15 0 empty empty empty 17 7 0 10 -262144 -1 -1
1 1;
#X obj 1187 -517 tgl 15 0 empty empty empty 17 7 0 10 -262144 -1 -1
0 1;
#X obj 1205 -511 tgl 15 0 empty empty empty 17 7 0 10 -262144 -1 -1
1 1;
#X obj 1220 -497 tgl 15 0 empty empty empty 17 7 0 10 -262144 -1 -1
1 1;
#X obj 1250 -406 tgl 15 0 empty empty empty 17 7 0 10 -262144 -1 -1
0 1;
#X obj 1312 -501 tgl 15 0 empty empty empty 17 7 0 10 -262144 -1 -1
0 1;
#X obj 1325 -530 tgl 15 0 empty empty empty 17 7 0 10 -262144 -1 -1
0 1;
#X obj 1333 -551 tgl 15 0 empty empty empty 17 7 0 10 -262144 -1 -1
0 1;
#X obj 1341 -572 tgl 15 0 empty empty empty 17 7 0 10 -262144 -1 -1
0 1;
#X obj 1278 -450 tgl 15 0 empty empty empty 17 7 0 10 -262144 -1 -1
0 1;
#X obj 1290 -475 tgl 15 0 empty empty empty 17 7 0 10 -262144 -1 -1
0 1;
#X msg 470 -766 dimen 1024 768 \, create \, 1;
#X obj 898 -621 r orbit;
#X obj 1151 -487 s orbit;
#X obj 1368 -578 s x1;
#X obj 1378 -550 s y1;
#X obj 1134 -509 s coord;
#X obj -92 -684 demultiplex 0 1;
#X obj 42 -770 r coord;
#X obj 10 -683 demultiplex 0 1;
#X obj 122 -680 demultiplex 0 1;
#X obj -95 -709 r x1;
#X obj 35 -713 r y1;
#X obj 143 -707 r z1;
#X obj 1390 -527 s z1;
#X obj 1393 -423 s x2;
#X obj 1450 -316 s y2;
#X obj -231 145 r line;
#X obj -230 173 demultiplex 0 1;
#X obj 1220 -436 s line;
#X floatatom -178 -435 5 0 0 0 - - -;
#X obj 1389 -484 s particles;
#X obj -166 -458 r particles;
#X obj 817 -693 pack f f f;
#X obj 815 -744 r x2;
#X obj 840 -722 r y2;
#X obj 874 -716 r z2;
#X obj 1445 -395 s z2;
#X obj 1487 -489 s kill;
#X obj -168 -169 r kill;
#X obj 594 -493 part_gravity;
#X obj 1181 -326 s gravity;
#X obj 556 -515 demultiplex 1 0;
#X obj 669 -525 r gravity;
#X obj 319 -722 tgl 15 0 empty empty empty 17 7 0 10 -262144 -1 -1
1 1;
#X obj 315 -758 loadbang;
#X msg 678 -682 fullscreen 0;
#X msg 660 -736 offset 1920 0;
#X msg 669 -763 offset 0 0;
#X obj 1567 -610 s speed;
#X obj 1525 -436 s y3;
#X obj 1514 -417 s x3;
#X obj 1540 -459 s z3;
#X obj 933 -714 pack f f f;
#X obj 929 -744 r x3;
#X obj 966 -743 r y3;
#X obj 1002 -741 r z3;
#X obj 1442 87 line;
#X obj 1249 -356 s anim1;
#X obj 1278 -400 s anim2;
#X obj 1436 -22 r anim1;
#X obj 1370 -667 unpack f f f f f f f f f f f f f f f f;
#X floatatom 1549 -391 5 0 0 0 - - -;
#X floatatom 1562 -365 5 0 0 0 - - -;
#X floatatom 1568 -335 5 0 0 0 - - -;
#X floatatom 1601 -397 5 0 0 0 - - -;
#X obj 885 -526 r orbit;
#X obj 891 -574 r orbit_c;
#X obj 817 -670 s orbit_c;
#X obj 1436 134 s rx1;
#X obj 1492 135 s ry1;
#X obj -205 -602 r rx1;
#X obj -159 -600 r ry1;
#X obj 1439 10 spigot;
#X msg 675 -715 fullscreen 1;
#X obj 539 -289 line;
#X obj 533 -242 s rx1;
#X obj 589 -241 s ry1;
#X msg 654 -318 0;
#X obj 1530 8 spigot;
#X obj 1290 -428 s anim3;
#X msg 1520 42 0 10000;
#X obj 1529 -21 r anim2;
#X obj 554 -462 multiplex 0 1;
#X obj 811 -599 demultiplex 1 0;
#X obj 811 -506 multiplex 1 0;
#X floatatom 118 205 5 0 0 0 - - -;
#X msg 30 125 draw line;
#X msg -26 235 draw fill;
#X msg -44 153 draw point;
#X floatatom 164 229 5 0 0 0 - - -;
#X obj 140 22 r sphere;
#X obj 103 51 spigot;
#X obj 1206 -477 s sphere;
#X obj 1552 -274 s sphere_size;
#X obj 113 183 r sphere_size;
#X obj 1563 -241 s sphere_segments;
#X obj 164 206 r sphere_segments;
#X obj 100 254 sphere;
#X obj -103 -577 r speed;
#X obj 963 -604 r gravity_;
#X obj -17 -442 part_velsphere;
#X floatatom 88 -473 5 0 0 0 - - -;
#X msg 31 -485 1 1 0;
#X obj 56 -196 part_targetsize;
#X obj 177 -362 vsl 15 128 0 0.5 0 0 empty empty empty 0 -9 0 10 -262144
-1 -1 0 1;
#X floatatom 120 -230 5 0 0 0 - - -;
#X obj 838 -479 s transform_sphere;
#X obj 103 -3 r transform_sphere;
#X obj -6 -631 s finalX;
#X obj 97 -627 s finalY;
#X obj 203 -632 s finalZ;
#X obj -196 -692 r finalX;
#X obj -182 -670 r finalY;
#X obj -158 -651 r finalZ;
#X obj 1366 -705 s anal;
#X obj 1145 -628 r anal;
#X obj 933 -688 s gravity_cord;
#X obj 663 -493 r gravity_cord;
#X obj -239 -97 s to_orbit;
#X obj 812 -453 s from_orbit;
#X obj 811 -628 r to_orbit;
#X obj -243 123 r from_orbit;
#X obj 23 57 loadbang;
#X obj 1600 -372 s velsphere;
#X obj 100 -504 r velsphere;
#X obj -229 -370 s to_gravity;
#X obj 558 -546 r to_gravity;
#X obj 550 -384 s from_gravity;
#X obj -238 -252 r from_gravity;
#X obj 700 -445 r gravity;
#X msg 385 -773 create;
#X obj 654 -387 hsl 128 15 0 0.2 0 0 empty empty empty -2 -8 0 10 -262144
-1 -1 0 1;
#X obj -202 -741 tgl 15 0 empty empty empty 17 7 0 10 -262144 -1 -1
0 1;
#X msg 490 -591 lighting \$1;
#X obj 508 -613 tgl 15 0 empty empty empty 17 7 0 10 -262144 -1 -1
1 1;
#X msg 347 -353 draw line;
#X msg 347 -333 draw fill;
#X msg 347 -313 draw point;
#X obj 427 -341 bng 25 250 50 0 empty empty grab 0 -6 0 8 -262144 -1
-1;
#X floatatom 425 -305 5 0 0 1 amount - -;
#X obj 193 -187 ripple 16 16;
#X obj 428 -283 tgl 15 0 empty empty ctrX 18 8 0 8 -262144 -1 -1 0
1;
#X obj 428 -263 tgl 15 0 empty empty ctrY 18 8 0 8 -262144 -1 -1 0
1;
#X floatatom 363 -280 5 0 0 0 - - -;
#X obj 559 137 pix_texture;
#X obj 558 108 pix_image ice_texture2967.JPG;
#X obj 934 94 + 1;
#X obj 904 91 f;
#X obj 905 122 % 2;
#X floatatom 905 154 5 0 0 0 - - -;
#X obj 1340 -320 s texture;
#X obj 908 28 r texture;
#X obj 904 63 spigot;
#X obj 100 118 s part_render;
#X obj 498 77 demultiplex;
#X obj 499 52 r part_render;
#X obj 495 166 multiplex;
#X obj 497 227 s sphere_;
#X obj 101 158 r sphere_;
#X obj 904 181 s texture_toggle;
#X obj 1355 -420 tgl 15 0 empty empty empty 17 7 0 10 -262144 -1 -1
0 1;
#X obj 1337 -291 s sphere_lines;
#X obj 800 33 r sphere_lines;
#X obj 831 93 + 1;
#X obj 801 90 f;
#X obj 801 119 % 2;
#X floatatom 801 144 5 0 0 0 - - -;
#X obj 801 62 spigot;
#X obj 807 182 s sphere_l;
#X obj 34 87 r sphere_l;
#X obj 1146 -599 unpack b b b b b b b b b b b b b;
#X obj 559 162 r texture_toggle;
#X obj 607 58 r texture_toggle;
#X msg -25 123 0;
#X obj -28 209 r texture_toggle;
#X obj 1570 -202 s light;
#X obj 518 -642 loadbang;
#X msg 1441 43 1800 30000;
#X obj 1237 -772 dumpOSC 200;
#X msg 152 -441 reset \, dimen 1280 800 \, offset 1920 0 \, border
0 \, menubar -1 \, create \, 1;
#X obj -167 -713 s gemglava;
#X obj 312 69 gemhead;
#X msg 399 208 1 1 1;
#X obj 326 183 tgl 15 0 empty empty empty 0 -6 0 8 -262144 -1 -1 0
1;
#X msg 326 204 debug \$1;
#X floatatom 392 73 5 0 0 0 - - -;
#X obj 312 91 rotateXYZ 0 -120 0;
#X msg 398 185 1 1 0;
#X obj 312 230 world_light;
#X obj 321 160 tgl 20 0 empty \$0-onoff empty 17 7 0 10 -262144 -1
-1 1 1;
#X obj 403 18 r light;
#X obj 331 132 loadbang;
#X obj 1235 -27 r anim3;
#X obj 1193 92 line;
#X obj 1187 139 s rx1;
#X obj 1243 140 s ry1;
#X obj 1190 15 spigot;
#X obj 1303 130 s rz1;
#X obj -83 -603 r rz1;
#X msg 1192 48 2160 80000;
#X obj 1312 -54 r anim4;
#X obj 1258 -280 s anim4;
#X obj 1008 -177 r anim4;
#X obj 1008 -64 line;
#X obj 1002 -17 s rx1;
#X obj 1058 -16 s ry1;
#X obj 1005 -141 spigot;
#X obj 1118 -26 s rz1;
#X msg 1007 -108 0 80000;
#X connect 0 0 1 0;
#X connect 0 0 228 0;
#X connect 1 0 18 0;
#X connect 2 0 148 0;
#X connect 3 0 173 0;
#X connect 4 0 23 0;
#X connect 5 0 166 0;
#X connect 6 0 201 0;
#X connect 8 0 7 0;
#X connect 9 0 7 0;
#X connect 10 0 7 0;
#X connect 11 0 25 0;
#X connect 12 0 25 0;
#X connect 13 0 22 0;
#X connect 14 0 156 0;
#X connect 15 0 157 0;
#X connect 16 0 158 0;
#X connect 17 0 5 1;
#X connect 18 0 2 0;
#X connect 19 0 18 3;
#X connect 20 0 18 1;
#X connect 21 0 18 2;
#X connect 22 0 2 0;
#X connect 23 0 5 0;
#X connect 24 0 23 1;
#X connect 26 0 0 0;
#X connect 27 0 28 0;
#X connect 27 1 29 0;
#X connect 30 0 132 1;
#X connect 31 0 30 2;
#X connect 32 0 61 0;
#X connect 33 0 62 0;
#X connect 34 0 78 0;
#X connect 35 0 71 0;
#X connect 36 0 72 0;
#X connect 37 0 73 0;
#X connect 38 0 84 0;
#X connect 39 0 85 0;
#X connect 40 0 98 0;
#X connect 41 0 97 0;
#X connect 42 0 99 0;
#X connect 43 0 96 0;
#X connect 44 0 27 0;
#X connect 44 1 108 0;
#X connect 44 2 162 0;
#X connect 45 0 63 0;
#X connect 46 0 60 0;
#X connect 47 0 88 0;
#X connect 49 0 140 0;
#X connect 50 0 76 0;
#X connect 51 0 105 0;
#X connect 53 0 249 0;
#X connect 54 0 209 0;
#X connect 55 0 198 0;
#X connect 56 0 106 0;
#X connect 57 0 127 0;
#X connect 58 0 7 0;
#X connect 59 0 131 1;
#X connect 64 1 14 0;
#X connect 65 0 64 1;
#X connect 65 0 67 1;
#X connect 65 0 66 1;
#X connect 66 1 15 0;
#X connect 67 1 16 0;
#X connect 68 0 64 0;
#X connect 69 0 66 0;
#X connect 70 0 67 0;
#X connect 74 0 75 1;
#X connect 74 0 75 0;
#X connect 75 0 11 0;
#X connect 75 1 12 0;
#X connect 77 0 3 1;
#X connect 79 0 77 0;
#X connect 80 0 115 0;
#X connect 81 0 80 0;
#X connect 82 0 80 1;
#X connect 83 0 80 2;
#X connect 86 0 17 0;
#X connect 87 0 130 1;
#X connect 89 0 130 0;
#X connect 89 1 87 0;
#X connect 90 0 89 1;
#X connect 91 0 7 0;
#X connect 92 0 91 0;
#X connect 93 0 7 0;
#X connect 94 0 7 0;
#X connect 95 0 7 0;
#X connect 100 0 164 0;
#X connect 101 0 100 0;
#X connect 102 0 100 1;
#X connect 103 0 100 2;
#X connect 104 0 116 0;
#X connect 104 0 117 0;
#X connect 107 0 120 0;
#X connect 107 0 120 1;
#X connect 108 0 32 0;
#X connect 108 1 33 0;
#X connect 108 2 35 0;
#X connect 108 3 34 0;
#X connect 108 4 36 0;
#X connect 108 5 37 0;
#X connect 108 6 38 0;
#X connect 108 7 39 0;
#X connect 108 8 40 0;
#X connect 108 9 41 0;
#X connect 108 10 42 0;
#X connect 108 11 43 0;
#X connect 108 12 109 0;
#X connect 108 13 110 0;
#X connect 108 14 111 0;
#X connect 108 15 112 0;
#X connect 109 0 141 0;
#X connect 110 0 143 0;
#X connect 111 0 223 0;
#X connect 112 0 171 0;
#X connect 113 0 132 2;
#X connect 114 0 30 1;
#X connect 118 0 20 0;
#X connect 119 0 21 0;
#X connect 120 0 225 0;
#X connect 121 0 7 0;
#X connect 122 0 123 0;
#X connect 122 0 124 0;
#X connect 125 0 122 0;
#X connect 126 0 128 0;
#X connect 128 0 104 0;
#X connect 129 0 126 0;
#X connect 129 0 126 1;
#X connect 130 0 175 0;
#X connect 131 0 132 0;
#X connect 131 1 30 0;
#X connect 132 0 154 0;
#X connect 132 0 167 0;
#X connect 133 0 145 1;
#X connect 134 0 145 0;
#X connect 135 0 145 0;
#X connect 136 0 145 0;
#X connect 137 0 145 2;
#X connect 138 0 139 1;
#X connect 139 0 6 0;
#X connect 142 0 133 0;
#X connect 144 0 137 0;
#X connect 146 0 13 0;
#X connect 147 0 31 0;
#X connect 148 0 3 0;
#X connect 149 0 148 2;
#X connect 150 0 148 1;
#X connect 152 0 151 2;
#X connect 153 0 151 1;
#X connect 155 0 139 0;
#X connect 159 0 1 1;
#X connect 160 0 1 2;
#X connect 161 0 1 3;
#X connect 163 0 218 0;
#X connect 165 0 87 1;
#X connect 168 0 131 0;
#X connect 169 0 25 0;
#X connect 170 0 134 0;
#X connect 172 0 149 0;
#X connect 174 0 89 0;
#X connect 176 0 4 0;
#X connect 177 0 130 2;
#X connect 178 0 7 0;
#X connect 180 0 0 0;
#X connect 181 0 7 0;
#X connect 182 0 181 0;
#X connect 183 0 188 0;
#X connect 184 0 188 0;
#X connect 185 0 188 0;
#X connect 186 0 188 0;
#X connect 187 0 188 2;
#X connect 189 0 188 3;
#X connect 190 0 188 4;
#X connect 191 0 188 1;
#X connect 192 0 204 1;
#X connect 193 0 192 0;
#X connect 194 0 195 1;
#X connect 195 0 194 0;
#X connect 195 0 196 0;
#X connect 196 0 197 0;
#X connect 197 0 207 0;
#X connect 199 0 200 0;
#X connect 199 0 200 1;
#X connect 200 0 195 0;
#X connect 202 0 204 0;
#X connect 202 1 193 0;
#X connect 203 0 202 0;
#X connect 204 0 205 0;
#X connect 206 0 145 0;
#X connect 210 0 215 0;
#X connect 210 0 215 1;
#X connect 211 0 212 1;
#X connect 212 0 211 0;
#X connect 212 0 213 0;
#X connect 213 0 214 0;
#X connect 214 0 216 0;
#X connect 215 0 212 0;
#X connect 217 0 134 0;
#X connect 218 0 45 0;
#X connect 218 1 46 0;
#X connect 218 2 47 0;
#X connect 218 3 48 0;
#X connect 218 4 49 0;
#X connect 218 5 50 0;
#X connect 218 6 51 0;
#X connect 218 7 56 0;
#X connect 218 8 57 0;
#X connect 218 9 52 0;
#X connect 218 10 53 0;
#X connect 218 11 54 0;
#X connect 218 12 55 0;
#X connect 219 0 204 2;
#X connect 220 0 202 1;
#X connect 221 0 136 0;
#X connect 222 0 135 0;
#X connect 224 0 182 0;
#X connect 225 0 104 0;
#X connect 226 0 44 0;
#X connect 227 0 7 0;
#X connect 229 0 234 0;
#X connect 230 0 236 1;
#X connect 231 0 232 0;
#X connect 232 0 236 0;
#X connect 233 0 234 2;
#X connect 234 0 236 0;
#X connect 235 0 236 1;
#X connect 237 0 236 0;
#X connect 238 0 233 0;
#X connect 240 0 244 0;
#X connect 240 0 244 1;
#X connect 241 0 242 0;
#X connect 241 0 243 0;
#X connect 241 0 245 0;
#X connect 244 0 247 0;
#X connect 246 0 19 0;
#X connect 247 0 241 0;
#X connect 250 0 254 0;
#X connect 251 0 252 0;
#X connect 251 0 253 0;
#X connect 251 0 255 0;
#X connect 254 0 256 0;
#X connect 256 0 251 0;
